<?xml version="1.0" encoding="UTF-8" standalone="no"?>
<!-- Created with Inkscape (http://www.inkscape.org/) -->

<svg
   xmlns:dc="http://purl.org/dc/elements/1.1/"
   xmlns:cc="http://creativecommons.org/ns#"
   xmlns:rdf="http://www.w3.org/1999/02/22-rdf-syntax-ns#"
   xmlns:svg="http://www.w3.org/2000/svg"
   xmlns="http://www.w3.org/2000/svg"
   xmlns:sodipodi="http://sodipodi.sourceforge.net/DTD/sodipodi-0.dtd"
   xmlns:inkscape="http://www.inkscape.org/namespaces/inkscape"
   width="15"
   height="17.5"
   id="svg3817"
   version="1.1"
   inkscape:version="0.48.4 r9939"
   sodipodi:docname="sactor.svg">
  <defs
     id="defs3819">
    <clipPath
       id="clipPath3301"
       clipPathUnits="userSpaceOnUse">
      <path
         inkscape:connector-curvature="0"
         id="path3303"
         d="m 284.303,462.369 7.366,0 0,-7.757 -7.366,0 0,7.757 z" />
    </clipPath>
    <clipPath
       id="clipPath3285"
       clipPathUnits="userSpaceOnUse">
      <path
         inkscape:connector-curvature="0"
         id="path3287"
         d="m 284.533,456.299 7.68,0 0,-8.673 -7.68,0 0,8.673 z" />
    </clipPath>
  </defs>
  <sodipodi:namedview
     id="base"
     pagecolor="#ffffff"
     bordercolor="#666666"
     borderopacity="1.0"
     inkscape:pageopacity="0.0"
     inkscape:pageshadow="2"
     inkscape:zoom="11.2"
     inkscape:cx="30.303742"
     inkscape:cy="2.4611389"
     inkscape:document-units="px"
     inkscape:current-layer="layer1"
     showgrid="false"
     inkscape:window-width="1536"
     inkscape:window-height="801"
     inkscape:window-x="-8"
     inkscape:window-y="-8"
     inkscape:window-maximized="1"
     fit-margin-top="0"
     fit-margin-left="0"
     fit-margin-right="0"
     fit-margin-bottom="0" />
  <metadata
     id="metadata3822">
    <rdf:RDF>
      <cc:Work
         rdf:about="">
        <dc:format>image/svg+xml</dc:format>
        <dc:type
           rdf:resource="http://purl.org/dc/dcmitype/StillImage" />
        <dc:title></dc:title>
      </cc:Work>
    </rdf:RDF>
  </metadata>
  <g
     inkscape:label="Layer 1"
     inkscape:groupmode="layer"
     id="layer1"
     transform="translate(-296.61757,-209.77429)">
    <g
       id="g3185"
       transform="matrix(1.25,0,0,-1.25,310.36757,221.02429)">
      <path
         inkscape:connector-curvature="0"
         d="m 0,0 -6,0 0,8 3,0 0,-3 3,0 0,-5 z m -2,-2 -6,0 0,8 1,0 0,-7 5,0 0,-1 z m -2,-2 -6,0 0,8 1,0 0,-7 5,0 0,-1 z M -2,7.293 -0.707,6 -2,6 -2,7.293 z M -2.293,9 -7,9 l 0,-2 -2,0 0,-2 -2,0 0,-10 8,0 0,2 2,0 0,2 2,0 L 1,5.707 -2.293,9 z"
         style="fill:#231f20;fill-opacity:1;fill-rule:nonzero;stroke:none"
         id="path3187" />
    </g>
  </g>
</svg>
