<?xml version="1.0" encoding="UTF-8" standalone="no"?>
<!-- Created with Inkscape (http://www.inkscape.org/) -->

<svg
   xmlns:dc="http://purl.org/dc/elements/1.1/"
   xmlns:cc="http://creativecommons.org/ns#"
   xmlns:rdf="http://www.w3.org/1999/02/22-rdf-syntax-ns#"
   xmlns:svg="http://www.w3.org/2000/svg"
   xmlns="http://www.w3.org/2000/svg"
   xmlns:sodipodi="http://sodipodi.sourceforge.net/DTD/sodipodi-0.dtd"
   xmlns:inkscape="http://www.inkscape.org/namespaces/inkscape"
   width="20"
   height="20"
   id="svg3817"
   version="1.1"
   inkscape:version="0.48.4 r9939"
   sodipodi:docname="zingeving.svg">
  <defs
     id="defs3819">
    <clipPath
       id="clipPath3301"
       clipPathUnits="userSpaceOnUse">
      <path
         inkscape:connector-curvature="0"
         id="path3303"
         d="m 284.303,462.369 7.366,0 0,-7.757 -7.366,0 0,7.757 z" />
    </clipPath>
    <clipPath
       id="clipPath3285"
       clipPathUnits="userSpaceOnUse">
      <path
         inkscape:connector-curvature="0"
         id="path3287"
         d="m 284.533,456.299 7.68,0 0,-8.673 -7.68,0 0,8.673 z" />
    </clipPath>
  </defs>
  <sodipodi:namedview
     id="base"
     pagecolor="#ffffff"
     bordercolor="#666666"
     borderopacity="1.0"
     inkscape:pageopacity="0.0"
     inkscape:pageshadow="2"
     inkscape:zoom="11.2"
     inkscape:cx="34.475633"
     inkscape:cy="4.3885332"
     inkscape:document-units="px"
     inkscape:current-layer="layer1"
     showgrid="false"
     inkscape:window-width="1536"
     inkscape:window-height="801"
     inkscape:window-x="-8"
     inkscape:window-y="-8"
     inkscape:window-maximized="1"
     fit-margin-top="0"
     fit-margin-left="0"
     fit-margin-right="0"
     fit-margin-bottom="0" />
  <metadata
     id="metadata3822">
    <rdf:RDF>
      <cc:Work
         rdf:about="">
        <dc:format>image/svg+xml</dc:format>
        <dc:type
           rdf:resource="http://purl.org/dc/dcmitype/StillImage" />
        <dc:title></dc:title>
      </cc:Work>
    </rdf:RDF>
  </metadata>
  <g
     inkscape:label="Layer 1"
     inkscape:groupmode="layer"
     id="layer1"
     transform="translate(-292.44569,-209.20169)">
    <g
       id="g3015"
       transform="matrix(1.25,0,0,-1.25,302.44569,227.95169)">
      <path
         inkscape:connector-curvature="0"
         d="m 0,0 c -3.859,0 -7,3.14 -7,7 0,3.86 3.141,7 7,7 C 3.859,14 7,10.86 7,7 7,3.14 3.859,0 0,0 m 0,15 c -4.418,0 -8,-3.582 -8,-8 0,-4.418 3.582,-8 8,-8 4.418,0 8,3.582 8,8 0,4.418 -3.582,8 -8,8"
         style="fill:#231f20;fill-opacity:1;fill-rule:nonzero;stroke:none"
         id="path3017" />
    </g>
    <g
       id="g3019"
       transform="matrix(1.25,0,0,-1.25,299.94569,217.95169)">
      <path
         inkscape:connector-curvature="0"
         d="M 0,0 C 0.553,0 1,0.671 1,1.5 1,2.329 0.553,3 0,3 -0.553,3 -1,2.329 -1,1.5 -1,0.671 -0.553,0 0,0"
         style="fill:#231f20;fill-opacity:1;fill-rule:nonzero;stroke:none"
         id="path3021" />
    </g>
    <g
       id="g3023"
       transform="matrix(1.25,0,0,-1.25,304.94569,217.95169)">
      <path
         inkscape:connector-curvature="0"
         d="M 0,0 C 0.553,0 1,0.671 1,1.5 1,2.329 0.553,3 0,3 -0.553,3 -1,2.329 -1,1.5 -1,0.671 -0.553,0 0,0"
         style="fill:#231f20;fill-opacity:1;fill-rule:nonzero;stroke:none"
         id="path3025" />
    </g>
    <g
       id="g3027"
       transform="matrix(1.25,0,0,-1.25,297.15019,222.43119)">
      <path
         inkscape:connector-curvature="0"
         d="m 0,0 c 0.871,-1.441 2.428,-2.416 4.236,-2.416 1.811,0 3.366,0.975 4.237,2.416 0.291,0.482 0.5,1.015 0.619,1.584 l -9.709,0 C -0.5,1.015 -0.291,0.482 0,0"
         style="fill:#231f20;fill-opacity:1;fill-rule:nonzero;stroke:none"
         id="path3029" />
    </g>
  </g>
</svg>
