<?xml version="1.0" encoding="UTF-8"?>
<!-- Generator: Adobe Illustrator 16.0.4, SVG Export Plug-In . SVG Version: 6.00 Build 0)  -->
<!DOCTYPE svg PUBLIC "-//W3C//DTD SVG 1.1//EN" "http://www.w3.org/Graphics/SVG/1.1/DTD/svg11.dtd">
<svg version="1.1" id="Layer_1" xmlns="http://www.w3.org/2000/svg" xmlns:xlink="http://www.w3.org/1999/xlink" x="0px" y="0px" width="231.701px" height="223.16px" viewBox="0 0 231.701 223.16" enable-background="new 0 0 231.701 223.16" xml:space="preserve">
<g>
	<g>
		<g>
			<path fill-rule="evenodd" clip-rule="evenodd" d="M49.754,100.46c1.527-3.464,3.246-3.678,6.263-1.938     c16.747,9.669,24.209,13.86,41.048,23.368c1.19,0.67,2.392,1.32,3.734,2.06C145.289,63.494,163.309,39.188,228.717,0     c1.073,1.334,1.977,2.453,2.984,3.707c-0.666,0.76-1.165,1.457-1.786,2.019c-61.518,55.586-76.996,91.269-113.352,165.437     c-3.979,8.119-4.174,7.884-9.856,1.263c-21.513-25.07-33.698-44.821-55.269-69.847C50.87,101.918,50.351,101.213,49.754,100.46z"/>
		</g>
	</g>
</g>
<path d="M184.851,74.403c-0.978,1.337-1.946,2.687-2.916,4.037v104.476c0,5.105-4.139,9.244-9.244,9.244H40.244  c-5.105,0-9.244-4.139-9.244-9.244V50.47c0-5.105,4.139-9.244,9.244-9.244h112.813c10.165-10.622,20.349-20.408,30.652-29.454  c-3.504-0.999-7.198-1.546-11.02-1.546H40.244C18.054,10.226,0,28.279,0,50.47v132.446c0,22.19,18.054,40.244,40.244,40.244H172.69  c22.19,0,40.244-18.054,40.244-40.244V50.47c0-3.415-0.431-6.731-1.235-9.9C202.356,51.438,193.39,62.727,184.851,74.403z"/>
</svg>