<?xml version="1.0" encoding="UTF-8"?>
<!-- Generator: Adobe Illustrator 16.0.4, SVG Export Plug-In . SVG Version: 6.00 Build 0)  -->
<!DOCTYPE svg PUBLIC "-//W3C//DTD SVG 1.1//EN" "http://www.w3.org/Graphics/SVG/1.1/DTD/svg11.dtd">
<svg version="1.1" id="Layer_1" xmlns="http://www.w3.org/2000/svg" xmlns:xlink="http://www.w3.org/1999/xlink" x="0px" y="0px" width="231.701px" height="223.16px" viewBox="0 0 231.701 223.16" enable-background="new 0 0 231.701 223.16" xml:space="preserve">
<path d="M172.69,41.226c5.104,0,9.244,4.139,9.244,9.244v132.446c0,5.105-4.14,9.244-9.244,9.244H40.244  c-5.105,0-9.244-4.139-9.244-9.244V50.47c0-5.105,4.139-9.244,9.244-9.244H172.69 M172.69,10.226H40.244  C18.054,10.226,0,28.279,0,50.47v132.446c0,22.19,18.054,40.244,40.244,40.244H172.69c22.19,0,40.244-18.054,40.244-40.244V50.47  C212.935,28.279,194.881,10.226,172.69,10.226L172.69,10.226z"/>
</svg>