<?xml version="1.0" encoding="UTF-8" standalone="no"?>
<!-- Created with Inkscape (http://www.inkscape.org/) -->

<svg
   xmlns:dc="http://purl.org/dc/elements/1.1/"
   xmlns:cc="http://creativecommons.org/ns#"
   xmlns:rdf="http://www.w3.org/1999/02/22-rdf-syntax-ns#"
   xmlns:svg="http://www.w3.org/2000/svg"
   xmlns="http://www.w3.org/2000/svg"
   xmlns:sodipodi="http://sodipodi.sourceforge.net/DTD/sodipodi-0.dtd"
   xmlns:inkscape="http://www.inkscape.org/namespaces/inkscape"
   width="20"
   height="20"
   id="svg3817"
   version="1.1"
   inkscape:version="0.48.4 r9939"
   sodipodi:docname="computer.svg">
  <defs
     id="defs3819">
    <clipPath
       id="clipPath3301"
       clipPathUnits="userSpaceOnUse">
      <path
         inkscape:connector-curvature="0"
         id="path3303"
         d="m 284.303,462.369 7.366,0 0,-7.757 -7.366,0 0,7.757 z" />
    </clipPath>
    <clipPath
       id="clipPath3285"
       clipPathUnits="userSpaceOnUse">
      <path
         inkscape:connector-curvature="0"
         id="path3287"
         d="m 284.533,456.299 7.68,0 0,-8.673 -7.68,0 0,8.673 z" />
    </clipPath>
  </defs>
  <sodipodi:namedview
     id="base"
     pagecolor="#ffffff"
     bordercolor="#666666"
     borderopacity="1.0"
     inkscape:pageopacity="0.0"
     inkscape:pageshadow="2"
     inkscape:zoom="11.2"
     inkscape:cx="40.571602"
     inkscape:cy="1.7468589"
     inkscape:document-units="px"
     inkscape:current-layer="layer1"
     showgrid="false"
     inkscape:window-width="1536"
     inkscape:window-height="801"
     inkscape:window-x="-8"
     inkscape:window-y="-8"
     inkscape:window-maximized="1"
     fit-margin-top="0"
     fit-margin-left="0"
     fit-margin-right="0"
     fit-margin-bottom="0" />
  <metadata
     id="metadata3822">
    <rdf:RDF>
      <cc:Work
         rdf:about="">
        <dc:format>image/svg+xml</dc:format>
        <dc:type
           rdf:resource="http://purl.org/dc/dcmitype/StillImage" />
        <dc:title></dc:title>
      </cc:Work>
    </rdf:RDF>
  </metadata>
  <g
     inkscape:label="Layer 1"
     inkscape:groupmode="layer"
     id="layer1"
     transform="translate(-286.34971,-206.56001)">
    <g
       id="g3171"
       transform="matrix(1.25,0,0,-1.25,300.63721,213.43501)">
      <path
         inkscape:connector-curvature="0"
         d="m 0,0 c 1.81,0 3.435,-0.727 4.549,-1.871 0.008,0.124 0.021,0.246 0.021,0.371 0,3.865 -3.58,7 -8,7 -4.418,0 -8,-3.135 -8,-7 0,-1.833 0.811,-3.498 2.129,-4.744 l -2.129,-4.256 5.022,2.51 c 0.388,-0.136 0.789,-0.249 1.205,-0.332 -0.154,0.234 -0.285,0.48 -0.402,0.734 -0.065,0.142 -0.122,0.289 -0.172,0.437 -0.186,0.522 -0.295,1.074 -0.295,1.651 0,3.033 2.724,5.5 6.072,5.5"
         style="fill:#231f20;fill-opacity:1;fill-rule:nonzero;stroke:none"
         id="path3173" />
    </g>
    <g
       id="g3175"
       transform="matrix(1.25,0,0,-1.25,304.49708,222.56338)">
      <path
         inkscape:connector-curvature="0"
         d="M 0,0 C 0.658,0.848 0.959,1.901 0.721,2.949 0.266,4.96 -1.969,6.169 -4.266,5.648 -6.562,5.127 -8.055,3.073 -7.6,1.062 c 0.457,-2.011 2.69,-3.219 4.987,-2.698 0.105,0.024 0.199,0.067 0.302,0.097 L 1.482,-3.197 0,0 z"
         style="fill:#231f20;fill-opacity:1;fill-rule:nonzero;stroke:none"
         id="path3177" />
    </g>
  </g>
</svg>
