<?xml version="1.0" encoding="UTF-8" standalone="no"?>
<!-- Created with Inkscape (http://www.inkscape.org/) -->

<svg
   xmlns:dc="http://purl.org/dc/elements/1.1/"
   xmlns:cc="http://creativecommons.org/ns#"
   xmlns:rdf="http://www.w3.org/1999/02/22-rdf-syntax-ns#"
   xmlns:svg="http://www.w3.org/2000/svg"
   xmlns="http://www.w3.org/2000/svg"
   xmlns:sodipodi="http://sodipodi.sourceforge.net/DTD/sodipodi-0.dtd"
   xmlns:inkscape="http://www.inkscape.org/namespaces/inkscape"
   width="19.995131"
   height="20.00013"
   id="svg3817"
   version="1.1"
   inkscape:version="0.48.4 r9939"
   sodipodi:docname="creatief.svg">
  <defs
     id="defs3819" />
  <sodipodi:namedview
     id="base"
     pagecolor="#ffffff"
     bordercolor="#666666"
     borderopacity="1.0"
     inkscape:pageopacity="0.0"
     inkscape:pageshadow="2"
     inkscape:zoom="11.2"
     inkscape:cx="16.918878"
     inkscape:cy="10.138371"
     inkscape:document-units="px"
     inkscape:current-layer="layer1"
     showgrid="false"
     inkscape:window-width="1536"
     inkscape:window-height="801"
     inkscape:window-x="-8"
     inkscape:window-y="-8"
     inkscape:window-maximized="1"
     fit-margin-top="0"
     fit-margin-left="0"
     fit-margin-right="0"
     fit-margin-bottom="0" />
  <metadata
     id="metadata3822">
    <rdf:RDF>
      <cc:Work
         rdf:about="">
        <dc:format>image/svg+xml</dc:format>
        <dc:type
           rdf:resource="http://purl.org/dc/dcmitype/StillImage" />
        <dc:title></dc:title>
      </cc:Work>
    </rdf:RDF>
  </metadata>
  <g
     inkscape:label="Layer 1"
     inkscape:groupmode="layer"
     id="layer1"
     transform="translate(-267.14529,-202.36211)">
    <g
       id="g3061"
       transform="matrix(1.25,0,0,-1.25,272.28204,205.73374)">
      <path
         inkscape:connector-curvature="0"
         d="M 0,0 -0.707,0.707 C -0.901,0.9 -1.22,0.9 -1.414,0.707 -1.608,0.512 -1.608,0.193 -1.414,0 l 0.707,-0.707 c 0.194,-0.195 0.513,-0.195 0.707,0 0.194,0.193 0.194,0.512 0,0.707"
         style="fill:#231f20;fill-opacity:1;fill-rule:nonzero;stroke:none"
         id="path3063" />
    </g>
    <g
       id="g3065"
       transform="matrix(1.25,0,0,-1.25,269.02029,211.11224)">
      <path
         inkscape:connector-curvature="0"
         d="M 0,0 -1,0 C -1.275,0 -1.5,-0.225 -1.5,-0.5 -1.5,-0.775 -1.275,-1 -1,-1 l 1,0 c 0.275,0 0.5,0.225 0.5,0.5 C 0.5,-0.225 0.275,0 0,0"
         style="fill:#231f20;fill-opacity:1;fill-rule:nonzero;stroke:none"
         id="path3067" />
    </g>
    <g
       id="g3069"
       transform="matrix(1.25,0,0,-1.25,286.51542,212.35974)">
      <path
         inkscape:connector-curvature="0"
         d="M 0,0 -1,0 C -1.275,0 -1.5,-0.225 -1.5,-0.5 -1.5,-0.775 -1.275,-1 -1,-1 l 1,0 c 0.275,0 0.5,0.225 0.5,0.5 C 0.5,-0.225 0.275,0 0,0"
         style="fill:#231f20;fill-opacity:1;fill-rule:nonzero;stroke:none"
         id="path3071" />
    </g>
    <g
       id="g3073"
       transform="matrix(1.25,0,0,-1.25,284.65254,205.73374)">
      <path
         inkscape:connector-curvature="0"
         d="m 0,0 c -0.194,0.193 -0.513,0.193 -0.707,0 l -0.707,-0.707 c -0.194,-0.195 -0.194,-0.514 0,-0.707 0.194,-0.195 0.513,-0.195 0.707,0 L 0,-0.707 C 0.194,-0.514 0.194,-0.195 0,0"
         style="fill:#231f20;fill-opacity:1;fill-rule:nonzero;stroke:none"
         id="path3075" />
    </g>
    <g
       id="g3077"
       transform="matrix(1.25,0,0,-1.25,277.76667,204.86461)">
      <path
         inkscape:connector-curvature="0"
         d="m 0,0 c 0.138,0 0.263,0.057 0.354,0.148 0.09,0.09 0.147,0.215 0.147,0.354 l 0,1 c 0,0.275 -0.225,0.5 -0.5,0.5 -0.207,0 -0.385,-0.127 -0.461,-0.307 L -0.5,1.5 -0.499,0.5 C -0.499,0.225 -0.275,0 0,0"
         style="fill:#231f20;fill-opacity:1;fill-rule:nonzero;stroke:none"
         id="path3079" />
    </g>
    <g
       id="g3081"
       transform="matrix(1.25,0,0,-1.25,279.01117,215.58961)">
      <path
         inkscape:connector-curvature="0"
         d="m 0,0 -0.497,-0.289 0,-0.574 0,-0.555 -2,0 0,0.555 0,0.574 L -2.993,0 c -0.942,0.549 -1.504,1.514 -1.504,2.582 0,1.654 1.346,3 3,3 1.655,0 3,-1.346 3,-3 C 1.503,1.514 0.941,0.549 0,0 m -1.497,6.582 c -2.209,0 -4,-1.791 -4,-4 0,-1.477 0.81,-2.752 2,-3.445 l 0,-1.555 4,0 0,1.555 c 1.191,0.693 2,1.968 2,3.445 0,2.209 -1.791,4 -4,4"
         style="fill:#231f20;fill-opacity:1;fill-rule:nonzero;stroke:none"
         id="path3083" />
    </g>
    <g
       id="g3085"
       transform="matrix(1.25,0,0,-1.25,274.64042,221.11224)">
      <path
         inkscape:connector-curvature="0"
         d="M 0,0 1.029,0 1,-0.125 C 1,-0.607 1.45,-1 2,-1 c 0.55,0 1,0.393 1,0.875 L 2.971,0 4,0 4,1 0,1 0,0 z"
         style="fill:#231f20;fill-opacity:1;fill-rule:nonzero;stroke:none"
         id="path3087" />
    </g>
  </g>
</svg>
