<?xml version="1.0" encoding="UTF-8" standalone="no"?>
<!-- Created with Inkscape (http://www.inkscape.org/) -->

<svg
   xmlns:dc="http://purl.org/dc/elements/1.1/"
   xmlns:cc="http://creativecommons.org/ns#"
   xmlns:rdf="http://www.w3.org/1999/02/22-rdf-syntax-ns#"
   xmlns:svg="http://www.w3.org/2000/svg"
   xmlns="http://www.w3.org/2000/svg"
   xmlns:sodipodi="http://sodipodi.sourceforge.net/DTD/sodipodi-0.dtd"
   xmlns:inkscape="http://www.inkscape.org/namespaces/inkscape"
   width="26.252768"
   height="22.815845"
   id="svg3817"
   version="1.1"
   inkscape:version="0.48.4 r9939"
   sodipodi:docname="planten.svg">
  <defs
     id="defs3819" />
  <sodipodi:namedview
     id="base"
     pagecolor="#ffffff"
     bordercolor="#666666"
     borderopacity="1.0"
     inkscape:pageopacity="0.0"
     inkscape:pageshadow="2"
     inkscape:zoom="11.2"
     inkscape:cx="39.24581"
     inkscape:cy="7.5629946"
     inkscape:document-units="px"
     inkscape:current-layer="layer1"
     showgrid="false"
     inkscape:window-width="1536"
     inkscape:window-height="801"
     inkscape:window-x="-8"
     inkscape:window-y="-8"
     inkscape:window-maximized="1"
     fit-margin-top="0"
     fit-margin-left="0"
     fit-margin-right="0"
     fit-margin-bottom="0" />
  <metadata
     id="metadata3822">
    <rdf:RDF>
      <cc:Work
         rdf:about="">
        <dc:format>image/svg+xml</dc:format>
        <dc:type
           rdf:resource="http://purl.org/dc/dcmitype/StillImage" />
        <dc:title></dc:title>
      </cc:Work>
    </rdf:RDF>
  </metadata>
  <g
     inkscape:label="Layer 1"
     inkscape:groupmode="layer"
     id="layer1"
     transform="translate(-287.6755,-209.5603)">
    <g
       id="g3197"
       transform="matrix(1.25,0,0,-1.25,309.83175,214.36864)">
      <path
         inkscape:connector-curvature="0"
         d="M 0,0 C 0.046,0.023 0.095,0.044 0.147,0.062 0.367,0.137 3.346,-0.057 3.276,0.175 3.08,0.835 1.149,3.431 -0.047,3.71 -0.821,3.89 -1.77,3.95 -2.481,3.523 -3.262,3.053 -3.284,2.213 -3.475,1.418 -3.781,0.14 -4.24,-0.425 -4.841,-1.596 c -0.563,-1.095 -3.838,-3.711 -4.626,-4.022 -1.466,-0.578 -3.129,-0.631 -4.556,-1.137 0.198,0.07 -2.225,-0.521 -2.225,-0.521 0,0 2.784,-1.032 2.784,-1.155 -10e-4,-0.123 -4.261,-0.692 -4.261,-0.692 l 0.754,-1.11 c 1.742,0.014 3.489,0.466 5.231,0.448 1.115,-0.012 2.603,0.207 3.674,-0.143 0.75,-0.245 1.542,-0.349 1.869,-0.576 0.327,-0.227 0.312,-2.141 0.343,-2.36 0.031,-0.219 -1.251,-1.255 -0.989,-1.423 0.261,-0.169 5.566,-0.148 5.587,0 0.021,0.148 -0.941,0.932 -1.34,1.106 -0.4,0.175 -2.279,0.201 -2.264,0.317 0.077,0.577 0.006,-0.109 0.211,1.587 0.205,1.694 1.488,1.212 2.668,2.115 1.016,0.778 2.309,1.859 2.538,3.226 0.127,0.762 0.088,1.55 -0.228,2.262 -0.171,0.385 -0.595,0.822 -0.727,1.22 C -0.684,-1.594 -1.011,-0.515 0,0"
         style="fill:#110f0d;fill-opacity:1;fill-rule:nonzero;stroke:none"
         id="path3199" />
    </g>
  </g>
</svg>
