<?xml version="1.0" encoding="UTF-8" standalone="no"?>
<!-- Created with Inkscape (http://www.inkscape.org/) -->

<svg
   xmlns:dc="http://purl.org/dc/elements/1.1/"
   xmlns:cc="http://creativecommons.org/ns#"
   xmlns:rdf="http://www.w3.org/1999/02/22-rdf-syntax-ns#"
   xmlns:svg="http://www.w3.org/2000/svg"
   xmlns="http://www.w3.org/2000/svg"
   xmlns:sodipodi="http://sodipodi.sourceforge.net/DTD/sodipodi-0.dtd"
   xmlns:inkscape="http://www.inkscape.org/namespaces/inkscape"
   width="19.712673"
   height="19.711805"
   id="svg3817"
   version="1.1"
   inkscape:version="0.48.4 r9939"
   sodipodi:docname="creatief.svg">
  <defs
     id="defs3819" />
  <sodipodi:namedview
     id="base"
     pagecolor="#ffffff"
     bordercolor="#666666"
     borderopacity="1.0"
     inkscape:pageopacity="0.0"
     inkscape:pageshadow="2"
     inkscape:zoom="11.2"
     inkscape:cx="-3.0462097"
     inkscape:cy="14.190697"
     inkscape:document-units="px"
     inkscape:current-layer="layer1"
     showgrid="false"
     inkscape:window-width="1536"
     inkscape:window-height="801"
     inkscape:window-x="-8"
     inkscape:window-y="-8"
     inkscape:window-maximized="1"
     fit-margin-top="0"
     fit-margin-left="0"
     fit-margin-right="0"
     fit-margin-bottom="0" />
  <metadata
     id="metadata3822">
    <rdf:RDF>
      <cc:Work
         rdf:about="">
        <dc:format>image/svg+xml</dc:format>
        <dc:type
           rdf:resource="http://purl.org/dc/dcmitype/StillImage" />
        <dc:title></dc:title>
      </cc:Work>
    </rdf:RDF>
  </metadata>
  <g
     inkscape:label="Layer 1"
     inkscape:groupmode="layer"
     id="layer1"
     transform="translate(-287.11038,-206.70276)">
    <g
       id="g3057"
       transform="matrix(1.25,0,0,-1.25,292.41194,210.97026)">
      <path
         inkscape:connector-curvature="0"
         d="m 0,0 -0.828,-0.828 -1.999,0 -0.414,0.414 2.827,2.828 L 0,2 0,0 z M 10.9,-7.484 8.072,-4.656 6.658,-6.07 0.931,-0.346 C 0.972,-0.234 1,-0.119 1,0 L 1,2 C 1,2.264 0.895,2.52 0.707,2.707 L 0.293,3.121 c -0.188,0.188 -0.442,0.293 -0.707,0.293 -0.265,0 -0.52,-0.105 -0.708,-0.293 L -3.948,0.293 c -0.391,-0.391 -0.391,-1.023 0,-1.414 l 0.414,-0.414 c 0.187,-0.188 0.442,-0.293 0.707,-0.293 l 1.999,0 c 0.12,0 0.236,0.029 0.346,0.07 L 5.244,-7.484 3.83,-8.898 6.658,-11.727 c 2.828,-1.414 4.242,0 4.242,0 0,0 1.415,1.414 0,4.243"
         style="fill:#231f20;fill-opacity:1;fill-rule:nonzero;stroke:none"
         id="path3059" />
    </g>
  </g>
</svg>
