<?xml version="1.0" encoding="UTF-8" standalone="no"?>
<!-- Created with Inkscape (http://www.inkscape.org/) -->

<svg
   xmlns:dc="http://purl.org/dc/elements/1.1/"
   xmlns:cc="http://creativecommons.org/ns#"
   xmlns:rdf="http://www.w3.org/1999/02/22-rdf-syntax-ns#"
   xmlns:svg="http://www.w3.org/2000/svg"
   xmlns="http://www.w3.org/2000/svg"
   xmlns:sodipodi="http://sodipodi.sourceforge.net/DTD/sodipodi-0.dtd"
   xmlns:inkscape="http://www.inkscape.org/namespaces/inkscape"
   width="19.999163"
   height="14.89875"
   id="svg3817"
   version="1.1"
   inkscape:version="0.48.4 r9939"
   sodipodi:docname="communicatie.svg">
  <defs
     id="defs3819">
    <clipPath
       id="clipPath3301"
       clipPathUnits="userSpaceOnUse">
      <path
         inkscape:connector-curvature="0"
         id="path3303"
         d="m 284.303,462.369 7.366,0 0,-7.757 -7.366,0 0,7.757 z" />
    </clipPath>
    <clipPath
       id="clipPath3285"
       clipPathUnits="userSpaceOnUse">
      <path
         inkscape:connector-curvature="0"
         id="path3287"
         d="m 284.533,456.299 7.68,0 0,-8.673 -7.68,0 0,8.673 z" />
    </clipPath>
  </defs>
  <sodipodi:namedview
     id="base"
     pagecolor="#ffffff"
     bordercolor="#666666"
     borderopacity="1.0"
     inkscape:pageopacity="0.0"
     inkscape:pageshadow="2"
     inkscape:zoom="11.2"
     inkscape:cx="43.517615"
     inkscape:cy="2.1426589"
     inkscape:document-units="px"
     inkscape:current-layer="layer1"
     showgrid="false"
     inkscape:window-width="1536"
     inkscape:window-height="801"
     inkscape:window-x="-8"
     inkscape:window-y="-8"
     inkscape:window-maximized="1"
     fit-margin-top="0"
     fit-margin-left="0"
     fit-margin-right="0"
     fit-margin-bottom="0" />
  <metadata
     id="metadata3822">
    <rdf:RDF>
      <cc:Work
         rdf:about="">
        <dc:format>image/svg+xml</dc:format>
        <dc:type
           rdf:resource="http://purl.org/dc/dcmitype/StillImage" />
        <dc:title></dc:title>
      </cc:Work>
    </rdf:RDF>
  </metadata>
  <g
     inkscape:label="Layer 1"
     inkscape:groupmode="layer"
     id="layer1"
     transform="translate(-283.4037,-212.05706)">
    <g
       id="g3163"
       transform="matrix(1.25,0,0,-1.25,293.70807,221.18831)">
      <path
         inkscape:connector-curvature="0"
         d="m 0,0 c -1.098,0.457 -1.357,0.616 -1.357,0.616 l -0.011,1.052 c 0,0 0.411,0.317 0.54,1.308 0.256,-0.075 0.526,0.383 0.541,0.624 0.014,0.232 -0.036,0.878 -0.35,0.813 0.064,0.486 0.11,0.922 0.088,1.154 -0.081,0.846 -0.914,1.738 -2.195,1.738 -1.279,0 -2.113,-0.892 -2.195,-1.738 C -4.961,5.335 -4.915,4.899 -4.851,4.413 -5.165,4.478 -5.215,3.832 -5.2,3.6 -5.185,3.359 -4.916,2.901 -4.658,2.976 -4.531,1.985 -4.119,1.668 -4.119,1.668 L -4.13,0.616 c 0,0 -0.261,-0.159 -1.356,-0.616 -1.1,-0.458 -2.208,-0.778 -2.537,-1.293 -0.297,-0.46 -0.208,-3.321 -0.208,-3.321 l 10.975,0 c 0,0 0.088,2.861 -0.208,3.321 C 2.207,-0.778 1.098,-0.458 0,0"
         style="fill:#231f20;fill-opacity:1;fill-rule:nonzero;stroke:none"
         id="path3165" />
    </g>
    <g
       id="g3167"
       transform="matrix(1.25,0,0,-1.25,303.15507,223.22568)">
      <path
         inkscape:connector-curvature="0"
         d="M 0,0 C -0.296,0.462 -0.292,0.75 -1.278,1.161 -2.265,1.572 -2.499,1.715 -2.499,1.715 L -2.507,2.66 c 0,0 0.369,0.284 0.485,1.175 0.23,-0.067 0.472,0.344 0.486,0.561 0.012,0.208 -0.032,0.788 -0.315,0.73 0.057,0.436 0.1,0.829 0.08,1.037 -0.073,0.76 -0.822,1.561 -1.972,1.561 -1.15,0 -1.899,-0.801 -1.973,-1.561 C -5.735,5.955 -5.694,5.562 -5.636,5.126 -5.919,5.184 -5.964,4.604 -5.95,4.396 -5.936,4.179 -5.694,3.768 -5.464,3.835 -5.349,2.944 -4.979,2.66 -4.979,2.66 L -5.304,2.406 C -4.381,1.968 -3.373,1.35 -3.373,0.73 l 0,-3.714 3.56,0 c 0,0 0.08,2.57 -0.187,2.984"
         style="fill:#231f20;fill-opacity:1;fill-rule:nonzero;stroke:none"
         id="path3169" />
    </g>
  </g>
</svg>
