<?xml version="1.0" encoding="UTF-8" standalone="no"?>
<!-- Created with Inkscape (http://www.inkscape.org/) -->

<svg
   xmlns:dc="http://purl.org/dc/elements/1.1/"
   xmlns:cc="http://creativecommons.org/ns#"
   xmlns:rdf="http://www.w3.org/1999/02/22-rdf-syntax-ns#"
   xmlns:svg="http://www.w3.org/2000/svg"
   xmlns="http://www.w3.org/2000/svg"
   xmlns:sodipodi="http://sodipodi.sourceforge.net/DTD/sodipodi-0.dtd"
   xmlns:inkscape="http://www.inkscape.org/namespaces/inkscape"
   width="20"
   height="17.499701"
   id="svg3817"
   version="1.1"
   inkscape:version="0.48.4 r9939"
   sodipodi:docname="mensen.svg">
  <defs
     id="defs3819">
    <clipPath
       id="clipPath3301"
       clipPathUnits="userSpaceOnUse">
      <path
         inkscape:connector-curvature="0"
         id="path3303"
         d="m 284.303,462.369 7.366,0 0,-7.757 -7.366,0 0,7.757 z" />
    </clipPath>
    <clipPath
       id="clipPath3285"
       clipPathUnits="userSpaceOnUse">
      <path
         inkscape:connector-curvature="0"
         id="path3287"
         d="m 284.533,456.299 7.68,0 0,-8.673 -7.68,0 0,8.673 z" />
    </clipPath>
  </defs>
  <sodipodi:namedview
     id="base"
     pagecolor="#ffffff"
     bordercolor="#666666"
     borderopacity="1.0"
     inkscape:pageopacity="0.0"
     inkscape:pageshadow="2"
     inkscape:zoom="11.2"
     inkscape:cx="36.642615"
     inkscape:cy="3.1246486"
     inkscape:document-units="px"
     inkscape:current-layer="layer1"
     showgrid="false"
     inkscape:window-width="1536"
     inkscape:window-height="801"
     inkscape:window-x="-8"
     inkscape:window-y="-8"
     inkscape:window-maximized="1"
     fit-margin-top="0"
     fit-margin-left="0"
     fit-margin-right="0"
     fit-margin-bottom="0" />
  <metadata
     id="metadata3822">
    <rdf:RDF>
      <cc:Work
         rdf:about="">
        <dc:format>image/svg+xml</dc:format>
        <dc:type
           rdf:resource="http://purl.org/dc/dcmitype/StillImage" />
        <dc:title></dc:title>
      </cc:Work>
    </rdf:RDF>
  </metadata>
  <g
     inkscape:label="Layer 1"
     inkscape:groupmode="layer"
     id="layer1"
     transform="translate(-290.2787,-210.4381)">
    <path
       inkscape:connector-curvature="0"
       d="m 309.0285,219.1881 -1.25,0 0,-2.5 1.25,0 0,2.5 z m -16.25,0 -1.25,0 0,-2.5 1.25,0 0,2.5 z m 16.25,-3.75 -1.25,0 c -0.24125,0 -0.45375,0.0862 -0.645,0.2075 -1.16625,-3.06625 -3.79375,-5.2075 -6.855,-5.2075 -0.32625,0 -0.64625,0.0325 -0.96125,0.08 -0.18,0.025 -0.35875,0.055 -0.53375,0.0937 -0.0187,0.005 -0.0375,0.0113 -0.0563,0.0163 -0.37375,0.0888 -0.74,0.20375 -1.0925,0.35375 -0.095,0.04 -0.18125,0.0987 -0.275,0.1425 l -10e-4,0.001 c -0.26375,0.12375 -0.52875,0.245 -0.77625,0.40375 -1.4175,0.91125 -2.5425,2.34875 -3.21125,4.08 -0.17875,-0.1 -0.37375,-0.17125 -0.5925,-0.17125 l -1.25,0 c -0.68625,0 -1.25,0.5625 -1.25,1.25 l 0,3.75 c 0,0.68625 0.56375,1.25 1.25,1.25 l 1.25,0 c 0.14875,0 0.2875,-0.0375 0.42,-0.0863 0.64,1.8725 1.935,3.48375 3.33,4.615 l 0,-0.77875 c 0,-0.2725 0.055,-0.52875 0.135,-0.77375 -1.415,-1.36375 -2.635,-3.3025 -2.635,-5.47625 0,-0.52375 0.0462,-1.03375 0.13125,-1.52875 1.3875,-0.53125 2.51625,-1.79375 3.09875,-3.43375 1.315,1.4625 4.09,2.4725 7.30875,2.4725 0.54125,0 1.0625,-0.035 1.5725,-0.0913 0.2475,0.80625 0.38875,1.6725 0.38875,2.58125 0,1.9325 -0.965,3.67625 -2.1725,5 l 1.62375,0 c 0.58,-0.77875 1.06,-1.65 1.37875,-2.58625 0.1325,0.0488 0.27125,0.0863 0.42,0.0863 l 1.25,0 0,2.5 c 0,0.68875 -0.56,1.25 -1.25,1.25 l -5,0 c 0,-0.6875 -0.5625,-1.25 -1.25,-1.25 l -2.5,0 c -0.68625,0 -1.25,0.5625 -1.25,1.25 l 0,1.25 c 0,0.68625 0.56375,1.25 1.25,1.25 l 2.5,0 c 0.6875,0 1.25,-0.56375 1.25,-1.25 l 5,0 c 1.38125,0 2.5,-1.12 2.5,-2.5 l 0,-7.5 c 0,-0.6875 -0.5625,-1.25 -1.25,-1.25"
       style="fill:#231f20;fill-opacity:1;fill-rule:nonzero;stroke:none"
       id="path3149" />
    <g
       id="g3151"
       transform="matrix(1.25,0,0,-1.25,298.7165,219.03135)">
      <path
         inkscape:connector-curvature="0"
         d="M 0,0 C 0,0.483 -0.392,0.875 -0.875,0.875 -1.359,0.875 -1.75,0.483 -1.75,0 c 0,-0.483 0.391,-0.875 0.875,-0.875 C -0.392,-0.875 0,-0.483 0,0"
         style="fill:#231f20;fill-opacity:1;fill-rule:nonzero;stroke:none"
         id="path3153" />
    </g>
    <g
       id="g3155"
       transform="matrix(1.25,0,0,-1.25,304.029,219.03135)">
      <path
         inkscape:connector-curvature="0"
         d="M 0,0 C 0,0.483 -0.391,0.875 -0.875,0.875 -1.358,0.875 -1.75,0.483 -1.75,0 c 0,-0.483 0.392,-0.875 0.875,-0.875 C -0.391,-0.875 0,-0.483 0,0"
         style="fill:#231f20;fill-opacity:1;fill-rule:nonzero;stroke:none"
         id="path3157" />
    </g>
  </g>
</svg>
