<?xml version="1.0" encoding="UTF-8" standalone="no"?>
<!-- Created with Inkscape (http://www.inkscape.org/) -->

<svg
   xmlns:dc="http://purl.org/dc/elements/1.1/"
   xmlns:cc="http://creativecommons.org/ns#"
   xmlns:rdf="http://www.w3.org/1999/02/22-rdf-syntax-ns#"
   xmlns:svg="http://www.w3.org/2000/svg"
   xmlns="http://www.w3.org/2000/svg"
   xmlns:sodipodi="http://sodipodi.sourceforge.net/DTD/sodipodi-0.dtd"
   xmlns:inkscape="http://www.inkscape.org/namespaces/inkscape"
   width="20.687128"
   height="20.688749"
   id="svg3817"
   version="1.1"
   inkscape:version="0.48.4 r9939"
   sodipodi:docname="muziek.svg">
  <defs
     id="defs3819">
    <clipPath
       id="clipPath3301"
       clipPathUnits="userSpaceOnUse">
      <path
         inkscape:connector-curvature="0"
         id="path3303"
         d="m 284.303,462.369 7.366,0 0,-7.757 -7.366,0 0,7.757 z" />
    </clipPath>
    <clipPath
       id="clipPath3285"
       clipPathUnits="userSpaceOnUse">
      <path
         inkscape:connector-curvature="0"
         id="path3287"
         d="m 284.533,456.299 7.68,0 0,-8.673 -7.68,0 0,8.673 z" />
    </clipPath>
  </defs>
  <sodipodi:namedview
     id="base"
     pagecolor="#ffffff"
     bordercolor="#666666"
     borderopacity="1.0"
     inkscape:pageopacity="0.0"
     inkscape:pageshadow="2"
     inkscape:zoom="11.2"
     inkscape:cx="30.839452"
     inkscape:cy="6.3004283"
     inkscape:document-units="px"
     inkscape:current-layer="layer1"
     showgrid="false"
     inkscape:window-width="1536"
     inkscape:window-height="801"
     inkscape:window-x="-8"
     inkscape:window-y="-8"
     inkscape:window-maximized="1"
     fit-margin-top="0"
     fit-margin-left="0"
     fit-margin-right="0"
     fit-margin-bottom="0" />
  <metadata
     id="metadata3822">
    <rdf:RDF>
      <cc:Work
         rdf:about="">
        <dc:format>image/svg+xml</dc:format>
        <dc:type
           rdf:resource="http://purl.org/dc/dcmitype/StillImage" />
        <dc:title></dc:title>
      </cc:Work>
    </rdf:RDF>
  </metadata>
  <g
     inkscape:label="Layer 1"
     inkscape:groupmode="layer"
     id="layer1"
     transform="translate(-296.08186,-210.42483)">
    <g
       id="g3277"
       transform="matrix(1.25,0,0,-1.25,305.94936,220.29358)">
      <path
         inkscape:connector-curvature="0"
         d="m 0,0 0,7.895 c -4.386,-0.196 -7.894,-3.832 -7.894,-8.272 0,-4.564 3.709,-8.279 8.266,-8.279 1.707,0 3.163,0.437 4.553,1.369 L 0.231,-0.815 0.315,-0.931 0,-0.497 0,-0.105 0,0 z"
         style="fill:#100f0d;fill-opacity:1;fill-rule:nonzero;stroke:none"
         id="path3279" />
    </g>
    <g
       id="g3281"
       transform="matrix(1.25,0,0,-1.25,-48.497262,788.38671)">
      <g
         id="g3283" />
      <g
         id="g3289">
        <g
           style="opacity:0.60000598"
           clip-path="url(#clipPath3285)"
           id="g3291">
          <g
             transform="translate(291.8995,456.2995)"
             id="g3293">
            <path
               inkscape:connector-curvature="0"
               d="M 0,0 -7.367,-2.398 -6.11,-4.13 -2.813,-8.673 C -0.178,-6.58 0.904,-3.245 0,0"
               style="fill:#100f0d;fill-opacity:1;fill-rule:nonzero;stroke:none"
               id="path3295" />
          </g>
        </g>
      </g>
    </g>
    <g
       id="g3297"
       transform="matrix(1.25,0,0,-1.25,-48.497262,788.38671)">
      <g
         id="g3299" />
      <g
         id="g3305">
        <g
           style="opacity:0.39999396"
           clip-path="url(#clipPath3301)"
           id="g3307">
          <g
             transform="translate(291.6695,457.0088)"
             id="g3309">
            <path
               inkscape:connector-curvature="0"
               d="m 0,0 c -1.174,3.158 -4.006,5.218 -7.367,5.36 l 0,-7.757 5.122,1.667 L 0,0 z"
               style="fill:#100f0d;fill-opacity:1;fill-rule:nonzero;stroke:none"
               id="path3311" />
          </g>
        </g>
      </g>
    </g>
  </g>
</svg>
